<mxfile host="app.diagrams.net" agent="Mozilla/5.0 (X11; Linux x86_64; rv:131.0) Gecko/20100101 Firefox/131.0" version="24.8.0">
  <diagram name="Pagina-1" id="-u4X870vsIt6SF9FVPmv">
    <mxGraphModel dx="1869" dy="1105" grid="1" gridSize="10" guides="1" tooltips="1" connect="1" arrows="1" fold="1" page="1" pageScale="1" pageWidth="827" pageHeight="1169" math="0" shadow="0">
      <root>
        <mxCell id="0" />
        <mxCell id="1" parent="0" />
        <mxCell id="6aUkPRsYZK9zB7-h0i2S-31" style="edgeStyle=orthogonalEdgeStyle;rounded=0;orthogonalLoop=1;jettySize=auto;html=1;exitX=1;exitY=0.5;exitDx=0;exitDy=0;entryX=1;entryY=0.5;entryDx=0;entryDy=0;endArrow=none;endFill=0;" edge="1" parent="1" source="6aUkPRsYZK9zB7-h0i2S-14" target="6aUkPRsYZK9zB7-h0i2S-30">
          <mxGeometry relative="1" as="geometry" />
        </mxCell>
        <mxCell id="6aUkPRsYZK9zB7-h0i2S-14" value="Account" style="swimlane;childLayout=stackLayout;horizontal=1;startSize=50;horizontalStack=0;rounded=1;fontSize=14;fontStyle=0;strokeWidth=2;resizeParent=0;resizeLast=1;shadow=0;dashed=0;align=center;arcSize=4;whiteSpace=wrap;html=1;" vertex="1" parent="1">
          <mxGeometry x="120" y="300" width="130" height="130" as="geometry">
            <mxRectangle x="120" y="300" width="70" height="50" as="alternateBounds" />
          </mxGeometry>
        </mxCell>
        <mxCell id="6aUkPRsYZK9zB7-h0i2S-15" value="&lt;div&gt;user_id&lt;/div&gt;&lt;div&gt;user_uuid&lt;/div&gt;&lt;div&gt;username&lt;/div&gt;&lt;div&gt;password_hash&lt;/div&gt;&lt;div&gt;wallet&lt;br&gt;&lt;/div&gt;&lt;div&gt;&lt;br&gt;&lt;/div&gt;" style="align=left;strokeColor=none;fillColor=none;spacingLeft=4;fontSize=12;verticalAlign=top;resizable=0;rotatable=0;part=1;html=1;" vertex="1" parent="6aUkPRsYZK9zB7-h0i2S-14">
          <mxGeometry y="50" width="130" height="80" as="geometry" />
        </mxCell>
        <mxCell id="6aUkPRsYZK9zB7-h0i2S-36" style="edgeStyle=orthogonalEdgeStyle;rounded=0;orthogonalLoop=1;jettySize=auto;html=1;exitX=0.5;exitY=1;exitDx=0;exitDy=0;entryX=0.5;entryY=1;entryDx=0;entryDy=0;endArrow=none;endFill=0;" edge="1" parent="1" source="6aUkPRsYZK9zB7-h0i2S-49" target="6aUkPRsYZK9zB7-h0i2S-85">
          <mxGeometry relative="1" as="geometry">
            <mxPoint x="489" y="425" as="sourcePoint" />
            <mxPoint x="489" y="470" as="targetPoint" />
          </mxGeometry>
        </mxCell>
        <mxCell id="6aUkPRsYZK9zB7-h0i2S-25" style="edgeStyle=orthogonalEdgeStyle;rounded=0;orthogonalLoop=1;jettySize=auto;html=1;entryX=0.5;entryY=1;entryDx=0;entryDy=0;endArrow=none;endFill=0;" edge="1" parent="1" source="6aUkPRsYZK9zB7-h0i2S-15" target="6aUkPRsYZK9zB7-h0i2S-187">
          <mxGeometry relative="1" as="geometry">
            <mxPoint x="184.99999999999977" y="480" as="targetPoint" />
          </mxGeometry>
        </mxCell>
        <mxCell id="6aUkPRsYZK9zB7-h0i2S-28" value="N" style="text;html=1;align=center;verticalAlign=middle;resizable=0;points=[];autosize=1;strokeColor=none;fillColor=none;fontSize=15;" vertex="1" parent="1">
          <mxGeometry x="240.75" y="524.5" width="30" height="30" as="geometry" />
        </mxCell>
        <mxCell id="6aUkPRsYZK9zB7-h0i2S-29" value="N" style="text;html=1;align=center;verticalAlign=middle;resizable=0;points=[];autosize=1;strokeColor=none;fillColor=none;fontSize=15;" vertex="1" parent="1">
          <mxGeometry x="185" y="429" width="30" height="30" as="geometry" />
        </mxCell>
        <mxCell id="6aUkPRsYZK9zB7-h0i2S-30" value="create" style="shape=rhombus;perimeter=rhombusPerimeter;whiteSpace=wrap;html=1;align=center;direction=west;" vertex="1" parent="1">
          <mxGeometry x="299" y="305" width="80" height="60" as="geometry" />
        </mxCell>
        <mxCell id="6aUkPRsYZK9zB7-h0i2S-33" value="N" style="text;html=1;align=center;verticalAlign=middle;resizable=0;points=[];autosize=1;strokeColor=none;fillColor=none;fontSize=15;" vertex="1" parent="1">
          <mxGeometry x="247" y="335" width="30" height="30" as="geometry" />
        </mxCell>
        <mxCell id="6aUkPRsYZK9zB7-h0i2S-34" value="1" style="text;html=1;align=center;verticalAlign=middle;resizable=0;points=[];autosize=1;strokeColor=none;fillColor=none;fontSize=15;" vertex="1" parent="1">
          <mxGeometry x="396.5" y="335" width="30" height="30" as="geometry" />
        </mxCell>
        <mxCell id="6aUkPRsYZK9zB7-h0i2S-38" value="1" style="text;html=1;align=center;verticalAlign=middle;resizable=0;points=[];autosize=1;strokeColor=none;fillColor=none;fontSize=15;" vertex="1" parent="1">
          <mxGeometry x="460" y="441" width="30" height="30" as="geometry" />
        </mxCell>
        <mxCell id="6aUkPRsYZK9zB7-h0i2S-39" value="N" style="text;html=1;align=center;verticalAlign=middle;resizable=0;points=[];autosize=1;strokeColor=none;fillColor=none;fontSize=15;" vertex="1" parent="1">
          <mxGeometry x="403.25" y="524.5" width="30" height="30" as="geometry" />
        </mxCell>
        <mxCell id="6aUkPRsYZK9zB7-h0i2S-43" value="Gacha" style="swimlane;childLayout=stackLayout;horizontal=1;startSize=50;horizontalStack=0;rounded=1;fontSize=14;fontStyle=0;strokeWidth=2;resizeParent=0;resizeLast=1;shadow=0;dashed=0;align=center;arcSize=4;whiteSpace=wrap;html=1;" vertex="1" parent="1">
          <mxGeometry x="274" y="489.5" width="130" height="120" as="geometry">
            <mxRectangle x="120" y="300" width="70" height="50" as="alternateBounds" />
          </mxGeometry>
        </mxCell>
        <mxCell id="6aUkPRsYZK9zB7-h0i2S-44" value="&lt;div&gt;gacha_id&lt;/div&gt;&lt;div&gt;gacha_uuid&lt;/div&gt;&lt;div&gt;rarity&lt;/div&gt;&lt;div&gt;image_path&lt;br&gt;&lt;/div&gt;" style="align=left;strokeColor=none;fillColor=none;spacingLeft=4;fontSize=12;verticalAlign=top;resizable=0;rotatable=0;part=1;html=1;" vertex="1" parent="6aUkPRsYZK9zB7-h0i2S-43">
          <mxGeometry y="50" width="130" height="70" as="geometry" />
        </mxCell>
        <mxCell id="6aUkPRsYZK9zB7-h0i2S-50" style="edgeStyle=orthogonalEdgeStyle;rounded=0;orthogonalLoop=1;jettySize=auto;html=1;exitX=0;exitY=0.5;exitDx=0;exitDy=0;entryX=0;entryY=0.5;entryDx=0;entryDy=0;endArrow=none;endFill=0;" edge="1" parent="1" source="6aUkPRsYZK9zB7-h0i2S-48" target="6aUkPRsYZK9zB7-h0i2S-30">
          <mxGeometry relative="1" as="geometry" />
        </mxCell>
        <mxCell id="6aUkPRsYZK9zB7-h0i2S-48" value="Auction" style="swimlane;childLayout=stackLayout;horizontal=1;startSize=50;horizontalStack=0;rounded=1;fontSize=14;fontStyle=0;strokeWidth=2;resizeParent=0;resizeLast=1;shadow=0;dashed=0;align=center;arcSize=4;whiteSpace=wrap;html=1;" vertex="1" parent="1">
          <mxGeometry x="426.5" y="305" width="126.5" height="135" as="geometry" />
        </mxCell>
        <mxCell id="6aUkPRsYZK9zB7-h0i2S-49" value="&lt;div&gt;auction_id&lt;/div&gt;&lt;div&gt;auction_uuid&lt;/div&gt;&lt;div&gt;base_price&lt;/div&gt;&lt;div&gt;final_price&lt;br&gt;&lt;/div&gt;&lt;div&gt;expire&lt;br&gt;&lt;/div&gt;" style="align=left;strokeColor=none;fillColor=none;spacingLeft=4;fontSize=12;verticalAlign=top;resizable=0;rotatable=0;part=1;html=1;" vertex="1" parent="6aUkPRsYZK9zB7-h0i2S-48">
          <mxGeometry y="50" width="126.5" height="85" as="geometry" />
        </mxCell>
        <mxCell id="6aUkPRsYZK9zB7-h0i2S-55" value="Transaction" style="swimlane;childLayout=stackLayout;horizontal=1;startSize=50;horizontalStack=0;rounded=1;fontSize=14;fontStyle=0;strokeWidth=2;resizeParent=0;resizeLast=1;shadow=0;dashed=0;align=center;arcSize=4;whiteSpace=wrap;html=1;" vertex="1" parent="1">
          <mxGeometry x="277" y="159" width="135" height="110" as="geometry" />
        </mxCell>
        <mxCell id="6aUkPRsYZK9zB7-h0i2S-56" value="&lt;div&gt;transaction_id&lt;/div&gt;&lt;div&gt;transaction_uuid&lt;br&gt;&lt;/div&gt;" style="align=left;strokeColor=none;fillColor=none;spacingLeft=4;fontSize=12;verticalAlign=top;resizable=0;rotatable=0;part=1;html=1;" vertex="1" parent="6aUkPRsYZK9zB7-h0i2S-55">
          <mxGeometry y="50" width="135" height="60" as="geometry" />
        </mxCell>
        <mxCell id="6aUkPRsYZK9zB7-h0i2S-62" style="edgeStyle=orthogonalEdgeStyle;rounded=0;orthogonalLoop=1;jettySize=auto;html=1;exitX=0.5;exitY=0;exitDx=0;exitDy=0;entryX=0.5;entryY=0;entryDx=0;entryDy=0;endArrow=none;endFill=0;" edge="1" parent="1" source="6aUkPRsYZK9zB7-h0i2S-193" target="6aUkPRsYZK9zB7-h0i2S-14">
          <mxGeometry relative="1" as="geometry">
            <mxPoint x="185" y="270" as="sourcePoint" />
          </mxGeometry>
        </mxCell>
        <mxCell id="6aUkPRsYZK9zB7-h0i2S-66" style="edgeStyle=orthogonalEdgeStyle;rounded=0;orthogonalLoop=1;jettySize=auto;html=1;entryX=0.5;entryY=0;entryDx=0;entryDy=0;endArrow=none;endFill=0;exitX=0.5;exitY=0;exitDx=0;exitDy=0;" edge="1" parent="1" source="6aUkPRsYZK9zB7-h0i2S-84" target="6aUkPRsYZK9zB7-h0i2S-48">
          <mxGeometry relative="1" as="geometry">
            <mxPoint x="489" y="140" as="sourcePoint" />
          </mxGeometry>
        </mxCell>
        <mxCell id="6aUkPRsYZK9zB7-h0i2S-65" style="edgeStyle=orthogonalEdgeStyle;rounded=0;orthogonalLoop=1;jettySize=auto;html=1;exitX=1;exitY=0.25;exitDx=0;exitDy=0;entryX=1;entryY=0.5;entryDx=0;entryDy=0;endArrow=none;endFill=0;" edge="1" parent="1" source="6aUkPRsYZK9zB7-h0i2S-56" target="6aUkPRsYZK9zB7-h0i2S-84">
          <mxGeometry relative="1" as="geometry">
            <mxPoint x="449" y="225" as="targetPoint" />
          </mxGeometry>
        </mxCell>
        <mxCell id="6aUkPRsYZK9zB7-h0i2S-67" value="&lt;div style=&quot;font-size: 15px;&quot;&gt;1&lt;/div&gt;" style="text;html=1;align=center;verticalAlign=middle;resizable=0;points=[];autosize=1;strokeColor=none;fillColor=none;fontSize=15;" vertex="1" parent="1">
          <mxGeometry x="413.5" y="224" width="30" height="30" as="geometry" />
        </mxCell>
        <mxCell id="6aUkPRsYZK9zB7-h0i2S-68" value="1" style="text;html=1;align=center;verticalAlign=middle;resizable=0;points=[];autosize=1;strokeColor=none;fillColor=none;fontSize=15;" vertex="1" parent="1">
          <mxGeometry x="458" y="273" width="30" height="30" as="geometry" />
        </mxCell>
        <mxCell id="6aUkPRsYZK9zB7-h0i2S-69" value="N" style="text;html=1;align=center;verticalAlign=middle;resizable=0;points=[];autosize=1;strokeColor=none;fillColor=none;fontSize=15;" vertex="1" parent="1">
          <mxGeometry x="185" y="269" width="30" height="30" as="geometry" />
        </mxCell>
        <mxCell id="6aUkPRsYZK9zB7-h0i2S-70" value="1" style="text;html=1;align=center;verticalAlign=middle;resizable=0;points=[];autosize=1;strokeColor=none;fillColor=none;fontSize=15;" vertex="1" parent="1">
          <mxGeometry x="247" y="225" width="30" height="30" as="geometry" />
        </mxCell>
        <mxCell id="6aUkPRsYZK9zB7-h0i2S-72" style="edgeStyle=orthogonalEdgeStyle;rounded=0;orthogonalLoop=1;jettySize=auto;html=1;exitX=1;exitY=0.5;exitDx=0;exitDy=0;entryX=1;entryY=0.5;entryDx=0;entryDy=0;endArrow=none;endFill=0;" edge="1" parent="1" source="6aUkPRsYZK9zB7-h0i2S-15" target="6aUkPRsYZK9zB7-h0i2S-78">
          <mxGeometry relative="1" as="geometry">
            <mxPoint x="299" y="414.9999999999999" as="targetPoint" />
          </mxGeometry>
        </mxCell>
        <mxCell id="6aUkPRsYZK9zB7-h0i2S-73" style="edgeStyle=orthogonalEdgeStyle;rounded=0;orthogonalLoop=1;jettySize=auto;html=1;exitX=0;exitY=0.5;exitDx=0;exitDy=0;entryX=0;entryY=0.5;entryDx=0;entryDy=0;endArrow=none;endFill=0;" edge="1" parent="1" source="6aUkPRsYZK9zB7-h0i2S-49" target="6aUkPRsYZK9zB7-h0i2S-78">
          <mxGeometry relative="1" as="geometry">
            <mxPoint x="379" y="414.9999999999999" as="targetPoint" />
          </mxGeometry>
        </mxCell>
        <mxCell id="6aUkPRsYZK9zB7-h0i2S-74" value="N" style="text;html=1;align=center;verticalAlign=middle;resizable=0;points=[];autosize=1;strokeColor=none;fillColor=none;fontSize=15;" vertex="1" parent="1">
          <mxGeometry x="247" y="390" width="30" height="30" as="geometry" />
        </mxCell>
        <mxCell id="6aUkPRsYZK9zB7-h0i2S-78" value="bid" style="shape=rhombus;perimeter=rhombusPerimeter;whiteSpace=wrap;html=1;align=center;direction=west;" vertex="1" parent="1">
          <mxGeometry x="299" y="380" width="80" height="60" as="geometry" />
        </mxCell>
        <mxCell id="6aUkPRsYZK9zB7-h0i2S-79" value="N" style="text;html=1;align=center;verticalAlign=middle;resizable=0;points=[];autosize=1;strokeColor=none;fillColor=none;fontSize=15;" vertex="1" parent="1">
          <mxGeometry x="398" y="397" width="30" height="30" as="geometry" />
        </mxCell>
        <mxCell id="6aUkPRsYZK9zB7-h0i2S-81" value="" style="endArrow=oval;html=1;rounded=0;exitX=0;exitY=0;exitDx=0;exitDy=0;endFill=1;strokeWidth=1;endSize=4;" edge="1" parent="1" source="6aUkPRsYZK9zB7-h0i2S-78">
          <mxGeometry width="50" height="50" relative="1" as="geometry">
            <mxPoint x="340" y="460" as="sourcePoint" />
            <mxPoint x="370" y="440" as="targetPoint" />
            <Array as="points" />
          </mxGeometry>
        </mxCell>
        <mxCell id="6aUkPRsYZK9zB7-h0i2S-83" value="amount" style="text;html=1;align=center;verticalAlign=middle;resizable=0;points=[];autosize=1;strokeColor=none;fillColor=none;fontSize=13;" vertex="1" parent="1">
          <mxGeometry x="341" y="437" width="70" height="30" as="geometry" />
        </mxCell>
        <mxCell id="6aUkPRsYZK9zB7-h0i2S-84" value="" style="shape=rhombus;perimeter=rhombusPerimeter;whiteSpace=wrap;html=1;align=center;direction=west;" vertex="1" parent="1">
          <mxGeometry x="449" y="195" width="80" height="60" as="geometry" />
        </mxCell>
        <mxCell id="6aUkPRsYZK9zB7-h0i2S-192" style="edgeStyle=orthogonalEdgeStyle;rounded=0;orthogonalLoop=1;jettySize=auto;html=1;exitX=1;exitY=0.5;exitDx=0;exitDy=0;entryX=1;entryY=0.25;entryDx=0;entryDy=0;endArrow=none;endFill=0;" edge="1" parent="1" source="6aUkPRsYZK9zB7-h0i2S-85" target="6aUkPRsYZK9zB7-h0i2S-44">
          <mxGeometry relative="1" as="geometry" />
        </mxCell>
        <mxCell id="6aUkPRsYZK9zB7-h0i2S-85" value="" style="shape=rhombus;perimeter=rhombusPerimeter;whiteSpace=wrap;html=1;align=center;direction=west;" vertex="1" parent="1">
          <mxGeometry x="449" y="526.5" width="80" height="60" as="geometry" />
        </mxCell>
        <mxCell id="6aUkPRsYZK9zB7-h0i2S-86" value="Admin" style="swimlane;childLayout=stackLayout;horizontal=1;startSize=50;horizontalStack=0;rounded=1;fontSize=14;fontStyle=0;strokeWidth=2;resizeParent=0;resizeLast=1;shadow=0;dashed=0;align=center;arcSize=4;whiteSpace=wrap;html=1;" vertex="1" parent="1">
          <mxGeometry x="600" y="307" width="160" height="120" as="geometry" />
        </mxCell>
        <mxCell id="6aUkPRsYZK9zB7-h0i2S-87" value="&lt;div&gt;admin_id&lt;/div&gt;&lt;div&gt;username&lt;/div&gt;&lt;div&gt;password_hash&lt;br&gt;&lt;/div&gt;" style="align=left;strokeColor=none;fillColor=none;spacingLeft=4;fontSize=12;verticalAlign=top;resizable=0;rotatable=0;part=1;html=1;" vertex="1" parent="6aUkPRsYZK9zB7-h0i2S-86">
          <mxGeometry y="50" width="160" height="70" as="geometry" />
        </mxCell>
        <mxCell id="6aUkPRsYZK9zB7-h0i2S-191" style="edgeStyle=orthogonalEdgeStyle;rounded=0;orthogonalLoop=1;jettySize=auto;html=1;exitX=0;exitY=0.5;exitDx=0;exitDy=0;entryX=0;entryY=0.25;entryDx=0;entryDy=0;endArrow=none;endFill=0;" edge="1" parent="1" source="6aUkPRsYZK9zB7-h0i2S-187" target="6aUkPRsYZK9zB7-h0i2S-44">
          <mxGeometry relative="1" as="geometry" />
        </mxCell>
        <mxCell id="6aUkPRsYZK9zB7-h0i2S-187" value="" style="shape=rhombus;perimeter=rhombusPerimeter;whiteSpace=wrap;html=1;align=center;direction=west;" vertex="1" parent="1">
          <mxGeometry x="144.25" y="526.5" width="80" height="60" as="geometry" />
        </mxCell>
        <mxCell id="6aUkPRsYZK9zB7-h0i2S-194" style="edgeStyle=orthogonalEdgeStyle;rounded=0;orthogonalLoop=1;jettySize=auto;html=1;exitX=0;exitY=0.5;exitDx=0;exitDy=0;entryX=0;entryY=0.25;entryDx=0;entryDy=0;endArrow=none;endFill=0;" edge="1" parent="1" source="6aUkPRsYZK9zB7-h0i2S-193" target="6aUkPRsYZK9zB7-h0i2S-56">
          <mxGeometry relative="1" as="geometry" />
        </mxCell>
        <mxCell id="6aUkPRsYZK9zB7-h0i2S-193" value="" style="shape=rhombus;perimeter=rhombusPerimeter;whiteSpace=wrap;html=1;align=center;direction=west;" vertex="1" parent="1">
          <mxGeometry x="145" y="194" width="80" height="60" as="geometry" />
        </mxCell>
      </root>
    </mxGraphModel>
  </diagram>
</mxfile>
